<?xml version="1.0" encoding="iso-8859-1"?>
<!-- Generator: Adobe Illustrator 19.0.0, SVG Export Plug-In . SVG Version: 6.00 Build 0)  -->
<svg version="1.1" id="Capa_1" xmlns="http://www.w3.org/2000/svg" xmlns:xlink="http://www.w3.org/1999/xlink" x="0px" y="0px"
	 viewBox="0 0 512.001 512.001" style="enable-background:new 0 0 512.001 512.001;" xml:space="preserve">
<path style="fill:#FFF2E9;" d="M364.062,14.212H157.05l7.38,113.16c2.569,39.396,35.273,70.035,74.752,70.035h42.749
	c39.479,0,72.183-30.64,74.752-70.035L364.062,14.212z"/>
<path style="fill:#E2D0C5;" d="M250.499,197.406h-11.314c-39.48,0-72.177-30.64-74.753-70.038L157.05,14.211h54.8l3.468,113.157
	C216.534,166.768,231.924,197.406,250.499,197.406z"/>
<path style="fill:#FFF2E9;" d="M345.357,161.699c-2.908,0-5.683-1.677-6.947-4.504c-1.713-3.834,0.006-8.331,3.841-10.045
	l46.561-20.807c5.339-2.387,9.04-7.483,9.658-13.299l4.48-42.231c0.499-4.705-0.97-9.234-4.134-12.752
	c-3.164-3.517-7.513-5.455-12.245-5.455h-29.506c-4.2,0-7.604-3.404-7.604-7.604s3.404-7.604,7.604-7.604h29.506
	c8.968,0,17.552,3.824,23.551,10.492c5.999,6.669,8.896,15.608,7.951,24.527l-4.48,42.231c-1.186,11.188-8.304,20.989-18.575,25.58
	l-46.562,20.807C347.448,161.486,346.393,161.699,345.357,161.699z"/>
<path style="fill:#EF6E4B;" d="M314.015,197.689v132.3H73.748c-24.992,0-46.75-13.86-58.003-34.32
	c-5.191-9.439-8.142-20.288-8.142-31.826c0-18.27,7.401-34.807,19.374-46.78s28.5-19.374,46.77-19.374L314.015,197.689
	L314.015,197.689z"/>
<path style="fill:#DB5B3E;" d="M314.015,295.67v34.32H73.748c-24.992,0-46.75-13.86-58.003-34.32H314.015z"/>
<path style="fill:#FFF2E9;" d="M504.396,329.991H314.019c-36.535,0-66.151-29.617-66.151-66.151l0,0
	c0-36.535,29.617-66.151,66.151-66.151h190.376l-10.137,28.129l-5.07,25.347v25.347l5.07,25.347L504.396,329.991z"/>
<g>
	<path style="fill:#E2D0C5;" d="M291.974,309.461H494.26c4.199,0,7.604-3.404,7.604-7.604s-3.404-7.604-7.604-7.604H291.974
		c-4.199,0-7.604,3.404-7.604,7.604C284.37,306.056,287.774,309.461,291.974,309.461z"/>
	<path style="fill:#E2D0C5;" d="M291.984,233.421H494.26c4.199,0,7.604-3.404,7.604-7.604s-3.404-7.604-7.604-7.604H291.984
		c-4.199,0-7.604,3.404-7.604,7.604C284.38,230.017,287.785,233.421,291.984,233.421z"/>
	<path style="fill:#E2D0C5;" d="M276.764,284.114H489.19c4.199,0,7.604-3.404,7.604-7.604c0-4.199-3.404-7.604-7.604-7.604H276.764
		c-4.199,0-7.604,3.404-7.604,7.604C269.16,280.71,272.565,284.114,276.764,284.114z"/>
	<path style="fill:#E2D0C5;" d="M276.775,258.767H489.19c4.199,0,7.604-3.404,7.604-7.604c0-4.199-3.404-7.604-7.604-7.604H276.775
		c-4.199,0-7.604,3.404-7.604,7.604C269.171,255.363,272.575,258.767,276.775,258.767z"/>
</g>
<path style="fill:#DB5B3E;" d="M0,263.844c0,40.67,33.087,73.755,73.755,73.755h240.267c0.033,0,0.065-0.004,0.098-0.005h59.305
	h35.781h95.189c4.199,0,7.604-3.404,7.604-7.604s-3.404-7.604-7.604-7.604h-95.189h-35.781h-59.407
	c-32.283,0-58.548-26.265-58.548-58.548c0-32.224,26.169-58.447,58.372-58.542h0.18c0.03,0,0.059-0.004,0.089-0.004h59.315h35.781
	h95.189c4.199,0,7.604-3.404,7.604-7.604c0-4.199-3.404-7.604-7.604-7.604h-95.189h-35.782h-59.407H168.94h-35.781
	c-0.059,0-0.117,0.004-0.176,0.004H73.755C33.087,190.089,0,223.176,0,263.844z M74.611,263.84c0-28.822,20.941-52.83,48.404-57.65
	c-16.944,13.525-27.831,34.334-27.831,57.65s10.887,44.124,27.831,57.65C95.552,316.67,74.611,292.662,74.611,263.84z
	 M269.236,322.387H168.94c-32.283,0-58.547-26.264-58.547-58.548c0-32.225,26.168-58.447,58.371-58.542H269.23
	c-17.593,13.492-28.967,34.709-28.967,58.542C240.263,287.676,251.639,308.895,269.236,322.387z M15.208,263.844
	c0-32.283,26.264-58.548,58.547-58.548H88.37c-17.593,13.492-28.967,34.709-28.967,58.542c0,23.839,11.378,45.06,28.978,58.552
	H73.755C41.472,322.392,15.208,296.128,15.208,263.844z"/>
<path style="fill:#EFB078;" d="M314.015,357.881v132.3H73.748c-24.992,0-46.75-13.86-58.003-34.32
	c-5.191-9.439-8.142-20.288-8.142-31.826c0-18.27,7.401-34.807,19.374-46.78c11.973-11.973,28.5-19.376,46.77-19.376h240.268
	V357.881z"/>
<path style="fill:#DD9F6C;" d="M314.015,455.861v34.32H73.748c-24.992,0-46.75-13.86-58.003-34.32H314.015z"/>
<path style="fill:#FFF2E9;" d="M504.396,490.182H314.019c-36.535,0-66.151-29.617-66.151-66.151l0,0
	c0-36.535,29.617-66.151,66.151-66.151h190.376l-10.137,28.129l-5.07,25.347v25.347l5.07,25.347L504.396,490.182z"/>
<g>
	<path style="fill:#E2D0C5;" d="M291.974,469.651H494.26c4.199,0,7.604-3.404,7.604-7.604s-3.404-7.604-7.604-7.604H291.974
		c-4.199,0-7.604,3.404-7.604,7.604S287.774,469.651,291.974,469.651z"/>
	<path style="fill:#E2D0C5;" d="M291.984,393.612H494.26c4.199,0,7.604-3.404,7.604-7.604c0-4.199-3.404-7.604-7.604-7.604H291.984
		c-4.199,0-7.604,3.404-7.604,7.604C284.38,390.208,287.785,393.612,291.984,393.612z"/>
	<path style="fill:#E2D0C5;" d="M276.764,444.305H489.19c4.199,0,7.604-3.404,7.604-7.604c0-4.199-3.404-7.604-7.604-7.604H276.764
		c-4.199,0-7.604,3.404-7.604,7.604S272.565,444.305,276.764,444.305z"/>
	<path style="fill:#E2D0C5;" d="M276.775,418.958H489.19c4.199,0,7.604-3.404,7.604-7.604s-3.404-7.604-7.604-7.604H276.775
		c-4.199,0-7.604,3.404-7.604,7.604C269.171,415.554,272.575,418.958,276.775,418.958z"/>
</g>
<path style="fill:#DD9F6C;" d="M0,424.035c0,40.67,33.087,73.755,73.755,73.755h240.267c0.033,0,0.065-0.004,0.098-0.005h59.305
	h35.781h95.189c4.199,0,7.604-3.404,7.604-7.604s-3.404-7.604-7.604-7.604h-95.189h-35.781h-59.407
	c-32.283,0-58.548-26.265-58.548-58.548c0-32.224,26.169-58.447,58.372-58.543h0.18c0.03,0,0.059-0.004,0.089-0.004h59.315h35.781
	h95.189c4.199,0,7.604-3.404,7.604-7.604s-3.404-7.604-7.604-7.604h-95.189h-35.782h-59.407H168.94h-35.781
	c-0.059,0-0.117,0.004-0.176,0.004H73.755C33.087,350.28,0,383.367,0,424.035z M74.611,424.031c0-28.822,20.941-52.83,48.404-57.65
	c-16.944,13.525-27.831,34.334-27.831,57.65c0,23.316,10.887,44.124,27.831,57.65C95.552,476.861,74.611,452.854,74.611,424.031z
	 M269.236,482.578H168.94c-32.283,0-58.547-26.264-58.547-58.548c0-32.225,26.168-58.447,58.371-58.543H269.23
	c-17.593,13.492-28.967,34.709-28.967,58.543C240.263,447.867,251.639,469.086,269.236,482.578z M15.208,424.035
	c0-32.283,26.264-58.548,58.547-58.548H88.37c-17.594,13.493-28.967,34.709-28.967,58.544c0,23.839,11.378,45.061,28.978,58.552
	H73.755C41.472,482.583,15.208,456.319,15.208,424.035z"/>
<g>
</g>
<g>
</g>
<g>
</g>
<g>
</g>
<g>
</g>
<g>
</g>
<g>
</g>
<g>
</g>
<g>
</g>
<g>
</g>
<g>
</g>
<g>
</g>
<g>
</g>
<g>
</g>
<g>
</g>
</svg>
